P2
64 64
255
0 0 0 0 0 0 0 0 0 0 0 0 0 0 0 0 0 0 0 0 0 0 0 0 0 0 0 0 0 0 0 0 0 0 0 0 0 0 0 0 0 0 0 0 0 0 0 0 0 0 0 0 0 0 0 0 0 0 0 0 0 0 0 0 
0 0 0 1 1 1 2 2 2 2 2 2 2 2 2 2 2 2 2 2 2 2 1 1 1 1 1 1 1 1 1 1 1 0 0 0 0 0 0 0 0 0 0 0 0 0 0 0 0 0 0 0 0 0 0 0 0 0 0 0 0 0 0 0 
0 0 1 2 3 4 4 4 5 5 5 5 5 5 5 5 5 4 4 4 4 4 3 3 3 3 3 2 2 2 2 2 2 1 1 1 1 1 1 1 1 1 1 0 0 0 0 0 0 0 0 0 0 0 0 0 0 0 0 0 0 0 0 0 
0 1 2 4 5 6 7 7 8 8 8 8 8 8 8 8 7 7 7 6 6 6 5 5 5 4 4 4 4 3 3 3 3 2 2 2 2 2 2 1 1 1 1 1 1 1 1 1 0 0 0 0 0 0 0 0 0 0 0 0 0 0 0 0 
0 1 3 5 7 8 9 10 11 11 11 11 11 11 11 10 10 10 9 9 8 8 7 7 6 6 6 5 5 5 4 4 4 3 3 3 3 2 2 2 2 2 2 1 1 1 1 1 1 1 1 0 0 0 0 0 0 0 0 0 0 0 0 0 
0 2 5 7 9 11 12 13 14 14 15 15 14 14 14 13 13 12 12 11 10 10 9 9 8 8 7 7 6 6 5 5 5 4 4 4 3 3 3 3 2 2 2 2 2 1 1 1 1 1 1 1 1 0 0 0 0 0 0 0 0 0 0 0 
0 3 6 9 12 14 15 17 17 18 18 18 18 17 17 16 16 15 14 13 13 12 11 11 10 9 9 8 8 7 7 6 6 5 5 5 4 4 4 3 3 3 3 2 2 2 2 2 1 1 1 1 1 1 0 0 0 0 0 0 0 0 0 0 
0 4 8 12 15 17 19 20 21 22 22 22 21 21 20 19 19 18 17 16 15 14 13 13 12 11 10 10 9 8 8 7 7 6 6 5 5 5 4 4 4 3 3 3 2 2 2 2 2 1 1 1 1 1 1 1 0 0 0 0 0 0 0 0 
0 5 10 15 18 21 23 25 26 26 26 26 25 24 24 23 22 20 19 18 17 16 15 14 13 13 12 11 10 10 9 8 8 7 7 6 6 5 5 4 4 4 3 3 3 3 2 2 2 2 2 1 1 1 1 1 0 0 0 0 0 0 0 0 
0 7 13 19 23 26 29 30 31 31 31 30 29 28 27 26 25 23 22 21 20 19 17 16 15 14 13 12 12 11 10 9 9 8 8 7 6 6 6 5 5 4 4 4 3 3 3 2 2 2 2 2 1 1 1 1 1 0 0 0 0 0 0 0 
0 9 17 24 29 32 35 36 36 36 36 35 34 32 31 29 28 26 25 23 22 21 19 18 17 16 15 14 13 12 11 10 10 9 8 8 7 7 6 6 5 5 4 4 4 3 3 3 3 2 2 2 2 1 1 1 1 1 0 0 0 0 0 0 
0 12 22 30 36 40 42 43 43 42 41 40 38 37 35 33 31 29 28 26 24 23 21 20 19 18 16 15 14 13 12 11 11 10 9 9 8 7 7 6 6 5 5 4 4 4 3 3 3 2 2 2 2 1 1 1 1 1 0 0 0 0 0 0 
0 16 30 40 46 49 50 51 50 49 47 45 43 41 39 37 35 33 31 29 27 25 24 22 21 19 18 17 16 14 13 13 12 11 10 9 9 8 7 7 6 6 5 5 4 4 4 3 3 3 2 2 2 2 1 1 1 1 1 0 0 0 0 0 
0 24 42 52 58 60 60 60 58 56 53 51 48 46 43 40 38 36 33 31 29 27 26 24 22 21 19 18 17 16 15 14 13 12 11 10 9 9 8 7 7 6 6 5 5 4 4 4 3 3 3 2 2 2 2 1 1 1 1 0 0 0 0 0 
0 40 61 70 73 73 72 69 66 63 60 57 53 50 47 44 41 39 36 34 32 30 28 26 24 22 21 19 18 17 16 14 13 12 12 11 10 9 9 8 7 7 6 6 5 5 4 4 4 3 3 3 2 2 2 1 1 1 1 0 0 0 0 0 
0 74 92 94 92 88 84 80 75 71 67 63 59 55 51 48 45 42 39 36 34 32 30 28 26 24 22 21 19 18 17 15 14 13 12 11 11 10 9 8 8 7 7 6 6 5 5 4 4 3 3 3 2 2 2 2 1 1 1 0 0 0 0 0 
255 167 137 122 112 104 97 90 84 79 73 69 64 60 56 52 48 45 42 39 36 34 32 29 27 25 24 22 20 19 18 16 15 14 13 12 11 10 10 9 8 8 7 6 6 5 5 4 4 4 3 3 3 2 2 2 1 1 1 1 0 0 0 0 
255 202 168 146 131 119 109 101 93 86 80 74 69 64 60 56 52 48 45 42 39 36 33 31 29 27 25 23 22 20 19 17 16 15 14 13 12 11 10 9 9 8 7 7 6 6 5 5 4 4 3 3 3 2 2 2 1 1 1 1 0 0 0 0 
255 217 187 164 146 132 121 110 102 94 87 80 74 69 64 59 55 51 47 44 41 38 35 33 30 28 26 24 23 21 19 18 17 16 14 13 12 11 11 10 9 8 8 7 6 6 5 5 4 4 4 3 3 2 2 2 2 1 1 1 0 0 0 0 
255 225 199 177 159 143 130 119 109 100 93 85 79 73 68 63 58 54 50 46 43 40 37 34 32 30 27 25 24 22 20 19 18 16 15 14 13 12 11 10 9 9 8 7 7 6 6 5 5 4 4 3 3 3 2 2 2 1 1 1 0 0 0 0 
255 230 206 186 168 152 139 127 116 107 98 90 83 77 71 66 61 56 52 48 45 42 39 36 33 31 29 27 25 23 21 20 18 17 16 14 13 12 11 11 10 9 8 8 7 6 6 5 5 4 4 3 3 3 2 2 2 1 1 1 0 0 0 0 
255 233 212 192 175 159 145 133 122 112 103 95 87 81 74 69 64 59 54 50 47 43 40 37 34 32 30 28 26 24 22 20 19 17 16 15 14 13 12 11 10 9 9 8 7 7 6 6 5 5 4 4 3 3 2 2 2 1 1 1 0 0 0 0 
255 235 215 197 180 165 151 138 127 117 107 99 91 84 77 72 66 61 57 52 48 45 42 38 36 33 31 28 26 24 23 21 19 18 17 15 14 13 12 11 10 10 9 8 7 7 6 6 5 5 4 4 3 3 3 2 2 1 1 1 0 0 0 0 
255 236 218 201 185 169 156 143 131 121 111 102 94 87 80 74 68 63 58 54 50 46 43 40 37 34 32 29 27 25 23 22 20 19 17 16 15 14 13 12 11 10 9 8 8 7 6 6 5 5 4 4 3 3 3 2 2 1 1 1 0 0 0 0 
255 237 220 203 188 173 159 147 135 124 114 105 97 90 83 76 70 65 60 56 51 48 44 41 38 35 32 30 28 26 24 22 20 19 18 16 15 14 13 12 11 10 9 9 8 7 7 6 5 5 4 4 3 3 3 2 2 2 1 1 0 0 0 0 
255 238 221 206 190 176 162 150 138 127 117 108 100 92 85 78 72 67 62 57 53 49 45 42 39 36 33 31 28 26 24 23 21 19 18 17 15 14 13 12 11 10 9 9 8 7 7 6 6 5 5 4 4 3 3 2 2 2 1 1 1 0 0 0 
255 238 223 207 192 178 165 152 140 130 120 110 102 94 87 80 74 68 63 58 54 50 46 43 39 36 34 31 29 27 25 23 21 20 18 17 16 14 13 12 11 10 10 9 8 7 7 6 6 5 5 4 4 3 3 2 2 2 1 1 1 0 0 0 
255 239 223 208 194 180 167 154 142 132 121 112 103 95 88 81 75 69 64 59 55 51 47 43 40 37 34 32 29 27 25 23 22 20 19 17 16 15 14 13 12 11 10 9 8 8 7 6 6 5 5 4 4 3 3 2 2 2 1 1 1 0 0 0 
255 239 224 209 195 181 168 156 144 133 123 113 105 97 89 82 76 70 65 60 55 51 47 44 41 37 35 32 30 28 26 24 22 20 19 17 16 15 14 13 12 11 10 9 8 8 7 6 6 5 5 4 4 3 3 2 2 2 1 1 1 0 0 0 
255 239 225 210 196 182 169 157 145 134 124 114 106 98 90 83 77 71 65 60 56 52 48 44 41 38 35 32 30 28 26 24 22 20 19 17 16 15 14 13 12 11 10 9 8 8 7 6 6 5 5 4 4 3 3 2 2 2 1 1 1 0 0 0 
255 240 225 210 196 183 170 157 146 135 125 115 106 98 91 84 77 71 66 61 56 52 48 44 41 38 35 33 30 28 26 24 22 21 19 18 16 15 14 13 12 11 10 9 8 8 7 6 6 5 5 4 4 3 3 2 2 2 1 1 1 0 0 0 
255 240 225 211 196 183 170 158 146 135 125 115 107 98 91 84 78 72 66 61 56 52 48 45 41 38 35 33 30 28 26 24 22 21 19 18 16 15 14 13 12 11 10 9 8 8 7 6 6 5 5 4 4 3 3 2 2 2 1 1 1 0 0 0 
255 240 225 211 196 183 170 158 146 135 125 115 107 98 91 84 78 72 66 61 56 52 48 45 41 38 35 33 30 28 26 24 22 21 19 18 16 15 14 13 12 11 10 9 8 8 7 6 6 5 5 4 4 3 3 2 2 2 1 1 1 0 0 0 
255 240 225 210 196 183 170 157 146 135 125 115 106 98 91 84 77 71 66 61 56 52 48 44 41 38 35 33 30 28 26 24 22 21 19 18 16 15 14 13 12 11 10 9 8 8 7 6 6 5 5 4 4 3 3 2 2 2 1 1 1 0 0 0 
255 239 225 210 196 182 169 157 145 134 124 114 106 98 90 83 77 71 65 60 56 52 48 44 41 38 35 32 30 28 26 24 22 20 19 17 16 15 14 13 12 11 10 9 8 8 7 6 6 5 5 4 4 3 3 2 2 2 1 1 1 0 0 0 
255 239 224 209 195 181 168 156 144 133 123 113 105 97 89 82 76 70 65 60 55 51 47 44 41 37 35 32 30 28 26 24 22 20 19 17 16 15 14 13 12 11 10 9 8 8 7 6 6 5 5 4 4 3 3 2 2 2 1 1 1 0 0 0 
255 239 223 208 194 180 167 154 142 132 121 112 103 95 88 81 75 69 64 59 55 51 47 43 40 37 34 32 29 27 25 23 22 20 19 17 16 15 14 13 12 11 10 9 8 8 7 6 6 5 5 4 4 3 3 2 2 2 1 1 1 0 0 0 
255 238 223 207 192 178 165 152 140 130 120 110 102 94 87 80 74 68 63 58 54 50 46 43 39 36 34 31 29 27 25 23 21 20 18 17 16 14 13 12 11 10 10 9 8 7 7 6 6 5 5 4 4 3 3 2 2 2 1 1 1 0 0 0 
255 238 221 206 190 176 162 150 138 127 117 108 100 92 85 78 72 67 62 57 53 49 45 42 39 36 33 31 28 26 24 23 21 19 18 17 15 14 13 12 11 10 9 9 8 7 7 6 6 5 5 4 4 3 3 2 2 2 1 1 1 0 0 0 
255 237 220 203 188 173 159 147 135 124 114 105 97 90 83 76 70 65 60 56 51 48 44 41 38 35 32 30 28 26 24 22 20 19 18 16 15 14 13 12 11 10 9 9 8 7 7 6 5 5 4 4 3 3 3 2 2 2 1 1 0 0 0 0 
255 236 218 201 185 169 156 143 131 121 111 102 94 87 80 74 68 63 58 54 50 46 43 40 37 34 32 29 27 25 23 22 20 19 17 16 15 14 13 12 11 10 9 8 8 7 6 6 5 5 4 4 3 3 3 2 2 1 1 1 0 0 0 0 
255 235 215 197 180 165 151 138 127 117 107 99 91 84 77 72 66 61 57 52 48 45 42 38 36 33 31 28 26 24 23 21 19 18 17 15 14 13 12 11 10 10 9 8 7 7 6 6 5 5 4 4 3 3 3 2 2 1 1 1 0 0 0 0 
255 233 212 192 175 159 145 133 122 112 103 95 87 81 74 69 64 59 54 50 47 43 40 37 34 32 30 28 26 24 22 20 19 17 16 15 14 13 12 11 10 9 9 8 7 7 6 6 5 5 4 4 3 3 2 2 2 1 1 1 0 0 0 0 
255 230 206 186 168 152 139 127 116 107 98 90 83 77 71 66 61 56 52 48 45 42 39 36 33 31 29 27 25 23 21 20 18 17 16 14 13 12 11 11 10 9 8 8 7 6 6 5 5 4 4 3 3 3 2 2 2 1 1 1 0 0 0 0 
255 225 199 177 159 143 130 119 109 100 93 85 79 73 68 63 58 54 50 46 43 40 37 34 32 30 27 25 24 22 20 19 18 16 15 14 13 12 11 10 9 9 8 7 7 6 6 5 5 4 4 3 3 3 2 2 2 1 1 1 0 0 0 0 
255 217 187 164 146 132 121 110 102 94 87 80 74 69 64 59 55 51 47 44 41 38 35 33 30 28 26 24 23 21 19 18 17 16 14 13 12 11 11 10 9 8 8 7 6 6 5 5 4 4 4 3 3 2 2 2 2 1 1 1 0 0 0 0 
255 202 168 146 131 119 109 101 93 86 80 74 69 64 60 56 52 48 45 42 39 36 33 31 29 27 25 23 22 20 19 17 16 15 14 13 12 11 10 9 9 8 7 7 6 6 5 5 4 4 3 3 3 2 2 2 1 1 1 1 0 0 0 0 
255 167 137 122 112 104 97 90 84 79 73 69 64 60 56 52 48 45 42 39 36 34 32 29 27 25 24 22 20 19 18 16 15 14 13 12 11 10 10 9 8 8 7 6 6 5 5 4 4 4 3 3 3 2 2 2 1 1 1 1 0 0 0 0 
0 74 92 94 92 88 84 80 75 71 67 63 59 55 51 48 45 42 39 36 34 32 30 28 26 24 22 21 19 18 17 15 14 13 12 11 11 10 9 8 8 7 7 6 6 5 5 4 4 3 3 3 2 2 2 2 1 1 1 0 0 0 0 0 
0 40 61 70 73 73 72 69 66 63 60 57 53 50 47 44 41 39 36 34 32 30 28 26 24 22 21 19 18 17 16 14 13 12 12 11 10 9 9 8 7 7 6 6 5 5 4 4 4 3 3 3 2 2 2 1 1 1 1 0 0 0 0 0 
0 24 42 52 58 60 60 60 58 56 53 51 48 46 43 40 38 36 33 31 29 27 26 24 22 21 19 18 17 16 15 14 13 12 11 10 9 9 8 7 7 6 6 5 5 4 4 4 3 3 3 2 2 2 2 1 1 1 1 0 0 0 0 0 
0 16 30 40 46 49 50 51 50 49 47 45 43 41 39 37 35 33 31 29 27 25 24 22 21 19 18 17 16 14 13 13 12 11 10 9 9 8 7 7 6 6 5 5 4 4 4 3 3 3 2 2 2 2 1 1 1 1 1 0 0 0 0 0 
0 12 22 30 36 40 42 43 43 42 41 40 38 37 35 33 31 29 28 26 24 23 21 20 19 18 16 15 14 13 12 11 11 10 9 9 8 7 7 6 6 5 5 4 4 4 3 3 3 2 2 2 2 1 1 1 1 1 0 0 0 0 0 0 
0 9 17 24 29 32 35 36 36 36 36 35 34 32 31 29 28 26 25 23 22 21 19 18 17 16 15 14 13 12 11 10 10 9 8 8 7 7 6 6 5 5 4 4 4 3 3 3 3 2 2 2 2 1 1 1 1 1 0 0 0 0 0 0 
0 7 13 19 23 26 29 30 31 31 31 30 29 28 27 26 25 23 22 21 20 19 17 16 15 14 13 12 12 11 10 9 9 8 8 7 6 6 6 5 5 4 4 4 3 3 3 2 2 2 2 2 1 1 1 1 1 0 0 0 0 0 0 0 
0 5 10 15 18 21 23 25 26 26 26 26 25 24 24 23 22 20 19 18 17 16 15 14 13 13 12 11 10 10 9 8 8 7 7 6 6 5 5 4 4 4 3 3 3 3 2 2 2 2 2 1 1 1 1 1 0 0 0 0 0 0 0 0 
0 4 8 12 15 17 19 20 21 22 22 22 21 21 20 19 19 18 17 16 15 14 13 13 12 11 10 10 9 8 8 7 7 6 6 5 5 5 4 4 4 3 3 3 2 2 2 2 2 1 1 1 1 1 1 1 0 0 0 0 0 0 0 0 
0 3 6 9 12 14 15 17 17 18 18 18 18 17 17 16 16 15 14 13 13 12 11 11 10 9 9 8 8 7 7 6 6 5 5 5 4 4 4 3 3 3 3 2 2 2 2 2 1 1 1 1 1 1 0 0 0 0 0 0 0 0 0 0 
0 2 5 7 9 11 12 13 14 14 15 15 14 14 14 13 13 12 12 11 10 10 9 9 8 8 7 7 6 6 5 5 5 4 4 4 3 3 3 3 2 2 2 2 2 1 1 1 1 1 1 1 1 0 0 0 0 0 0 0 0 0 0 0 
0 1 3 5 7 8 9 10 11 11 11 11 11 11 11 10 10 10 9 9 8 8 7 7 6 6 6 5 5 5 4 4 4 3 3 3 3 2 2 2 2 2 2 1 1 1 1 1 1 1 1 0 0 0 0 0 0 0 0 0 0 0 0 0 
0 1 2 4 5 6 7 7 8 8 8 8 8 8 8 8 7 7 7 6 6 6 5 5 5 4 4 4 4 3 3 3 3 2 2 2 2 2 2 1 1 1 1 1 1 1 1 1 0 0 0 0 0 0 0 0 0 0 0 0 0 0 0 0 
0 0 1 2 3 4 4 4 5 5 5 5 5 5 5 5 5 4 4 4 4 4 3 3 3 3 3 2 2 2 2 2 2 1 1 1 1 1 1 1 1 1 1 0 0 0 0 0 0 0 0 0 0 0 0 0 0 0 0 0 0 0 0 0 
0 0 0 1 1 1 2 2 2 2 2 2 2 2 2 2 2 2 2 2 2 2 1 1 1 1 1 1 1 1 1 1 1 0 0 0 0 0 0 0 0 0 0 0 0 0 0 0 0 0 0 0 0 0 0 0 0 0 0 0 0 0 0 0 
0 0 0 0 0 0 0 0 0 0 0 0 0 0 0 0 0 0 0 0 0 0 0 0 0 0 0 0 0 0 0 0 0 0 0 0 0 0 0 0 0 0 0 0 0 0 0 0 0 0 0 0 0 0 0 0 0 0 0 0 0 0 0 0 
